<?xml version="1.0" encoding="utf-8"?><!-- Generator: Adobe Illustrator 15.0.0, SVG Export Plug-In . SVG Version: 6.00 Build 0)  --><!DOCTYPE svg PUBLIC "-//W3C//DTD SVG 1.1//EN" "http://www.w3.org/Graphics/SVG/1.1/DTD/svg11.dtd"><svg fill="#FFFFFF" xmlns="http://www.w3.org/2000/svg" xmlns:xlink="http://www.w3.org/1999/xlink" viewBox="0 0 50 50" width="250px" height="250px"><path d="M30,36.437v-4.894l-4.105-0.633c-0.174-0.551-0.412-1.108-0.705-1.652l2.407-3.35l-3.476-3.627l-3.388,2.436c-0.536-0.272-1.089-0.481-1.64-0.671L18.455,20h-4.909l-0.632,4.004c-0.552,0.174-1.11,0.412-1.655,0.706l-3.364-2.418l-3.489,3.49l2.318,3.372c-0.278,0.546-0.49,1.11-0.683,1.67L2,31.567v4.865l3.999,0.736c0.174,0.555,0.412,1.115,0.707,1.664l-2.422,3.264l3.498,3.498l3.373-2.318c0.542,0.276,1.1,0.487,1.653,0.678L13.445,48h4.887l0.737-3.999c0.558-0.175,1.122-0.415,1.672-0.712l3.365,2.419l3.501-3.502l-2.424-3.372c0.274-0.542,0.484-1.1,0.675-1.654L30,36.437z M16,38c-2.2,0-4-1.8-4-4s1.8-4,4-4s4,1.8,4,4S18.2,38,16,38z"/><path d="M44.65,15.871c0.033-0.52,0.033-1.021,0-1.542l3.287-2.015l-1.72-4.376l-3.816,0.848c-0.329-0.393-0.691-0.756-1.084-1.085l0.844-3.691l-4.35-1.865l-2.023,3.194c-0.523-0.051-1.071-0.074-1.582-0.028l-1.992-3.249l-4.358,1.713l0.76,3.797c-0.303,0.306-0.634,0.647-0.972,1.021L23.91,7.739l-1.857,4.332l3.199,2.132c-0.035,0.529-0.035,1.039-0.001,1.567l-3.287,2.015l1.712,4.359l3.713-0.743c0.331,0.397,0.697,0.764,1.094,1.097l-0.844,3.691l4.331,1.856l2.133-3.199c0.53,0.034,1.036,0.036,1.568,0.002l2.014,3.288l4.369-1.717l-0.847-4.014c0.393-0.327,0.754-0.688,1.083-1.079l3.794,0.949l1.876-4.378L44.65,15.871z M35,19c-2.209,0-4-1.791-4-4s1.791-4,4-4s4,1.791,4,4S37.209,19,35,19z"/></svg>